<svg width="261" height="108" viewBox="0 0 261 108" fill="none" xmlns="http://www.w3.org/2000/svg">
<path d="M31.296 72.08H11.84L8.256 82H2.112L18.24 37.648H24.96L41.024 82H34.88L31.296 72.08ZM29.632 67.344L21.568 44.816L13.504 67.344H29.632ZM75.509 37.392V42.128H63.349V82H57.525V42.128H45.301V37.392H75.509ZM127.926 37.712V82H122.102V48.976L107.382 82H103.286L88.502 48.912V82H82.678V37.712H88.95L105.334 74.32L121.718 37.712H127.926ZM153.099 82.576C149.814 82.576 146.827 81.8293 144.139 80.336C141.494 78.8427 139.403 76.7307 137.867 74C136.374 71.2267 135.627 68.0267 135.627 64.4C135.627 60.816 136.395 57.6587 137.931 54.928C139.51 52.1547 141.643 50.0427 144.331 48.592C147.019 47.0987 150.027 46.352 153.355 46.352C156.683 46.352 159.691 47.0987 162.379 48.592C165.067 50.0427 167.179 52.1333 168.715 54.864C170.294 57.5947 171.083 60.7733 171.083 64.4C171.083 68.0267 170.272 71.2267 168.651 74C167.072 76.7307 164.918 78.8427 162.187 80.336C159.456 81.8293 156.427 82.576 153.099 82.576ZM153.099 77.456C155.19 77.456 157.152 76.9653 158.987 75.984C160.822 75.0027 162.294 73.5307 163.403 71.568C164.555 69.6053 165.131 67.216 165.131 64.4C165.131 61.584 164.576 59.1947 163.467 57.232C162.358 55.2693 160.907 53.8187 159.115 52.88C157.323 51.8987 155.382 51.408 153.291 51.408C151.158 51.408 149.195 51.8987 147.403 52.88C145.654 53.8187 144.246 55.2693 143.179 57.232C142.112 59.1947 141.579 61.584 141.579 64.4C141.579 67.2587 142.091 69.6693 143.115 71.632C144.182 73.5947 145.59 75.0667 147.339 76.048C149.088 76.9867 151.008 77.456 153.099 77.456ZM195.829 46.288C200.095 46.288 203.551 47.5893 206.197 50.192C208.842 52.752 210.165 56.464 210.165 61.328V82H204.405V62.16C204.405 58.6613 203.53 55.9947 201.781 54.16C200.031 52.2827 197.642 51.344 194.613 51.344C191.541 51.344 189.087 52.304 187.253 54.224C185.461 56.144 184.565 58.9387 184.565 62.608V82H178.741V46.928H184.565V51.92C185.717 50.128 187.274 48.7413 189.237 47.76C191.242 46.7787 193.439 46.288 195.829 46.288Z" fill="white"/>
<rect x="240" y="9" width="11" height="86.3" fill="#2980B9"/>
<rect x="215" y="34" width="11" height="36" transform="rotate(-90 215 34)" fill="#2980B9"/>
<rect x="215" y="47" width="11" height="35" fill="#C0392B"/>
<rect x="251" y="9" width="7" height="86.3" fill="#24628C"/>
<path d="M251 9L257.998 1.20577V16.7942L251 9Z" fill="#24628C"/>
<rect x="226" y="47" width="7" height="35" fill="#862E29"/>
<path d="M226 47L232.998 39.2058V54.7942L226 47Z" fill="#862E29"/>
</svg>
