<svg width="212" height="91" viewBox="0 0 212 91" fill="none" xmlns="http://www.w3.org/2000/svg">
<path d="M34.125 77.9375C34.2917 78.3542 34.375 78.7917 34.375 79.25C34.375 79.6667 34.1667 80.1042 33.75 80.5625C33.375 81.0208 32.7292 81.25 31.8125 81.25C30.9375 81.25 30.2917 80.7708 29.875 79.8125L26.5625 71.875H9.125L5.875 79.8125C5.45833 80.7708 4.79167 81.25 3.875 81.25C3 81.25 2.35417 81.0208 1.9375 80.5625C1.5625 80.1042 1.375 79.6667 1.375 79.25C1.375 78.7917 1.45833 78.3542 1.625 77.9375L14.625 47.125C15.2083 45.7083 16.2083 45 17.625 45H18.125C19.5 45 20.5 45.7083 21.125 47.125L34.125 77.9375ZM24.8125 67.625L17.875 50.9375L10.9375 67.625H24.8125ZM64 45.25C64.625 45.25 65.1458 45.4792 65.5625 45.9375C65.9792 46.3542 66.1875 46.8542 66.1875 47.4375C66.1875 48.0208 65.9792 48.5417 65.5625 49C65.1458 49.4167 64.625 49.625 64 49.625H53.5625V78.9375C53.5625 79.5625 53.3333 80.1042 52.875 80.5625C52.4583 81.0208 51.9167 81.25 51.25 81.25C50.625 81.25 50.0833 81.0208 49.625 80.5625C49.1667 80.1042 48.9375 79.5625 48.9375 78.9375V49.625H38.5C37.9167 49.625 37.3958 49.4167 36.9375 49C36.5208 48.5833 36.3125 48.0625 36.3125 47.4375C36.3125 46.8542 36.5208 46.3542 36.9375 45.9375C37.3542 45.4792 37.875 45.25 38.5 45.25H64ZM108 45C108.958 45 109.75 45.3333 110.375 46C111.042 46.6667 111.375 47.4583 111.375 48.375V78.9375C111.375 79.5625 111.146 80.1042 110.688 80.5625C110.229 81.0208 109.688 81.25 109.062 81.25C108.438 81.25 107.896 81.0208 107.438 80.5625C106.979 80.1042 106.75 79.5625 106.75 78.9375V49.875L94.875 79.125C94.625 79.75 94.2083 80.2708 93.625 80.6875C93.0417 81.0625 92.375 81.25 91.625 81.25C90.875 81.25 90.2083 81.0625 89.625 80.6875C89.0417 80.3125 88.6042 79.7917 88.3125 79.125L76.5 49.875V78.9375C76.5 79.5625 76.2708 80.1042 75.8125 80.5625C75.3542 81.0208 74.7917 81.25 74.125 81.25C73.5 81.25 72.9583 81.0208 72.5 80.5625C72.0417 80.1042 71.8125 79.5625 71.8125 78.9375V48.375C71.8125 47.4583 72.125 46.6667 72.75 46C73.4167 45.3333 74.2292 45 75.1875 45H76.875C77.5417 45 78.1458 45.2083 78.6875 45.625C79.2708 46.0417 79.7083 46.5417 80 47.125L91.625 76.125L103.25 47.125C103.5 46.5417 103.896 46.0417 104.438 45.625C105.021 45.2083 105.667 45 106.375 45H108Z" fill="#FF9F43"/>
<path d="M131.875 54.375C135.833 54.375 139.021 55.625 141.438 58.125C143.854 60.6667 145.021 63.9375 144.938 67.9375C144.938 71.9792 143.771 75.25 141.438 77.75C139.021 80.25 135.833 81.5 131.875 81.5C127.875 81.5 124.708 80.25 122.375 77.75C119.958 75.25 118.75 71.9792 118.75 67.9375C118.75 63.8542 119.958 60.5833 122.375 58.125C124.708 55.625 127.875 54.375 131.875 54.375ZM126.125 75.1875C126.958 75.8958 127.875 76.4167 128.875 76.75C129.917 77.0833 130.917 77.25 131.875 77.25C132.833 77.25 133.812 77.0833 134.812 76.75C135.812 76.4167 136.729 75.875 137.562 75.125C139.396 73.4583 140.312 71.0417 140.312 67.875C140.312 64.7917 139.396 62.3958 137.562 60.6875C136.021 59.2708 134.125 58.5833 131.875 58.625C128.167 58.625 125.604 60.2917 124.188 63.625C123.688 64.8333 123.438 66.2708 123.438 67.9375C123.438 69.6042 123.688 71.0417 124.188 72.25C124.688 73.4583 125.333 74.4375 126.125 75.1875ZM164.5 58.6875C161.5 58.6875 158.688 60.3333 156.062 63.625V78.9375C156.062 79.5625 155.833 80.1042 155.375 80.5625C154.917 81.0208 154.375 81.25 153.75 81.25C153.125 81.25 152.583 81.0208 152.125 80.5625C151.667 80.1042 151.438 79.5625 151.438 78.9375V57C151.438 56.3333 151.646 55.7708 152.062 55.3125C152.521 54.8542 153.083 54.625 153.75 54.625C154.375 54.625 154.917 54.8542 155.375 55.3125C155.833 55.7292 156.062 56.2917 156.062 57V59.125C157.438 57.7083 158.625 56.6875 159.625 56.0625C161.542 54.9375 163.375 54.375 165.125 54.375C166.917 54.375 168.375 54.6458 169.5 55.1875C170.625 55.6875 171.583 56.4167 172.375 57.375C173.958 59.25 174.75 61.5833 174.75 64.375V78.9375C174.75 79.5625 174.521 80.1042 174.062 80.5625C173.604 81.0208 173.062 81.25 172.438 81.25C171.812 81.25 171.271 81.0208 170.812 80.5625C170.354 80.1042 170.125 79.5625 170.125 78.9375V64.875C170.125 62.9583 169.688 61.4583 168.812 60.375C167.938 59.25 166.5 58.6875 164.5 58.6875ZM182.75 57C182.75 56.2917 182.979 55.7292 183.438 55.3125C183.896 54.8542 184.458 54.625 185.125 54.625C185.792 54.625 186.333 54.8542 186.75 55.3125C187.167 55.7292 187.375 56.2917 187.375 57V78.9375C187.375 79.5625 187.167 80.1042 186.75 80.5625C186.333 81.0208 185.792 81.25 185.125 81.25C184.458 81.25 183.896 81.0208 183.438 80.5625C182.979 80.1042 182.75 79.5625 182.75 78.9375V57ZM187.875 46.9375C187.875 47.6875 187.625 48.3125 187.125 48.8125C186.625 49.3125 186 49.5625 185.25 49.5625H184.938C184.188 49.5625 183.562 49.3125 183.062 48.8125C182.604 48.3125 182.375 47.6875 182.375 46.9375V46.75C182.375 46 182.625 45.375 183.125 44.875C183.625 44.375 184.229 44.125 184.938 44.125H185.25C186 44.125 186.625 44.375 187.125 44.875C187.625 45.375 187.875 46 187.875 46.75V46.9375ZM205.188 77.375C206.104 77.375 206.75 77.3125 207.125 77.1875C207.542 77.0208 207.979 76.9375 208.438 76.9375C208.896 76.9375 209.312 77.125 209.688 77.5C210.062 77.8333 210.25 78.3542 210.25 79.0625C210.25 79.7292 209.917 80.2083 209.25 80.5C207.792 81.1667 206.542 81.5 205.5 81.5C204.458 81.5 203.5 81.4375 202.625 81.3125C201.792 81.2292 200.979 80.9583 200.188 80.5C198.312 79.4167 197.375 77.5 197.375 74.75V58.875H193.75C193.125 58.875 192.792 58.5417 192.75 57.875C192.75 57.5833 192.917 57.3125 193.25 57.0625L200.188 50.25C200.479 49.9583 200.771 49.8125 201.062 49.8125C201.354 49.7708 201.583 49.8542 201.75 50.0625C201.917 50.2708 202 50.5208 202 50.8125V54.875H207.812C208.396 54.875 208.875 55.0625 209.25 55.4375C209.625 55.8125 209.812 56.2917 209.812 56.875C209.812 57.4583 209.625 57.9375 209.25 58.3125C208.875 58.6875 208.396 58.875 207.812 58.875H202V74.375C202 75.6667 202.396 76.5417 203.188 77C203.604 77.25 204.271 77.375 205.188 77.375Z" fill="#10AC84"/>
</svg>
