<svg width="276" height="108" viewBox="0 0 276 108" fill="none" xmlns="http://www.w3.org/2000/svg">
<path d="M50.176 37.712V82H44.352V48.976L29.632 82H25.536L10.752 48.912V82H4.928V37.712H11.2L27.584 74.32L43.968 37.712H50.176ZM75.349 82.576C72.0637 82.576 69.077 81.8293 66.389 80.336C63.7437 78.8427 61.653 76.7307 60.117 74C58.6237 71.2267 57.877 68.0267 57.877 64.4C57.877 60.816 58.645 57.6587 60.181 54.928C61.7597 52.1547 63.893 50.0427 66.581 48.592C69.269 47.0987 72.277 46.352 75.605 46.352C78.933 46.352 81.941 47.0987 84.629 48.592C87.317 50.0427 89.429 52.1333 90.965 54.864C92.5437 57.5947 93.333 60.7733 93.333 64.4C93.333 68.0267 92.5223 71.2267 90.901 74C89.3223 76.7307 87.1677 78.8427 84.437 80.336C81.7063 81.8293 78.677 82.576 75.349 82.576ZM75.349 77.456C77.4397 77.456 79.4023 76.9653 81.237 75.984C83.0717 75.0027 84.5437 73.5307 85.653 71.568C86.805 69.6053 87.381 67.216 87.381 64.4C87.381 61.584 86.8263 59.1947 85.717 57.232C84.6077 55.2693 83.157 53.8187 81.365 52.88C79.573 51.8987 77.6317 51.408 75.541 51.408C73.4077 51.408 71.445 51.8987 69.653 52.88C67.9037 53.8187 66.4957 55.2693 65.429 57.232C64.3623 59.1947 63.829 61.584 63.829 64.4C63.829 67.2587 64.341 69.6693 65.365 71.632C66.4317 73.5947 67.8397 75.0667 69.589 76.048C71.3383 76.9867 73.2583 77.456 75.349 77.456ZM118.079 46.288C122.345 46.288 125.801 47.5893 128.447 50.192C131.092 52.752 132.415 56.464 132.415 61.328V82H126.655V62.16C126.655 58.6613 125.78 55.9947 124.031 54.16C122.281 52.2827 119.892 51.344 116.863 51.344C113.791 51.344 111.337 52.304 109.503 54.224C107.711 56.144 106.815 58.9387 106.815 62.608V82H100.991V46.928H106.815V51.92C107.967 50.128 109.524 48.7413 111.487 47.76C113.492 46.7787 115.689 46.288 118.079 46.288Z" fill="#2C3E50"/>
<path d="M211.224 79.576C207.939 79.576 204.952 78.8293 202.264 77.336C199.619 75.8427 197.528 73.7307 195.992 71C194.499 68.2267 193.752 65.0267 193.752 61.4C193.752 57.816 194.52 54.6587 196.056 51.928C197.635 49.1547 199.768 47.0427 202.456 45.592C205.144 44.0987 208.152 43.352 211.48 43.352C214.808 43.352 217.816 44.0987 220.504 45.592C223.192 47.0427 225.304 49.1333 226.84 51.864C228.419 54.5947 229.208 57.7733 229.208 61.4C229.208 65.0267 228.397 68.2267 226.776 71C225.197 73.7307 223.043 75.8427 220.312 77.336C217.581 78.8293 214.552 79.576 211.224 79.576ZM211.224 74.456C213.315 74.456 215.277 73.9653 217.112 72.984C218.947 72.0027 220.419 70.5307 221.528 68.568C222.68 66.6053 223.256 64.216 223.256 61.4C223.256 58.584 222.701 56.1947 221.592 54.232C220.483 52.2693 219.032 50.8187 217.24 49.88C215.448 48.8987 213.507 48.408 211.416 48.408C209.283 48.408 207.32 48.8987 205.528 49.88C203.779 50.8187 202.371 52.2693 201.304 54.232C200.237 56.1947 199.704 58.584 199.704 61.4C199.704 64.2587 200.216 66.6693 201.24 68.632C202.307 70.5947 203.715 72.0667 205.464 73.048C207.213 73.9867 209.133 74.456 211.224 74.456ZM251.33 43.352C254.359 43.352 257.004 44.0133 259.266 45.336C261.57 46.6587 263.276 48.3227 264.386 50.328V43.928H270.274V79.768C270.274 82.968 269.591 85.8053 268.226 88.28C266.86 90.7973 264.898 92.76 262.338 94.168C259.82 95.576 256.876 96.28 253.506 96.28C248.898 96.28 245.058 95.192 241.986 93.016C238.914 90.84 237.1 87.8747 236.546 84.12H242.306C242.946 86.2533 244.268 87.96 246.274 89.24C248.279 90.5627 250.69 91.224 253.506 91.224C256.706 91.224 259.308 90.2213 261.314 88.216C263.362 86.2107 264.386 83.3947 264.386 79.768V72.408C263.234 74.456 261.527 76.1627 259.266 77.528C257.004 78.8933 254.359 79.576 251.33 79.576C248.215 79.576 245.378 78.808 242.818 77.272C240.3 75.736 238.316 73.5813 236.866 70.808C235.415 68.0347 234.69 64.8773 234.69 61.336C234.69 57.752 235.415 54.616 236.866 51.928C238.316 49.1973 240.3 47.0853 242.818 45.592C245.378 44.0987 248.215 43.352 251.33 43.352ZM264.386 61.4C264.386 58.7547 263.852 56.4507 262.786 54.488C261.719 52.5253 260.268 51.032 258.434 50.008C256.642 48.9413 254.658 48.408 252.482 48.408C250.306 48.408 248.322 48.92 246.53 49.944C244.738 50.968 243.308 52.4613 242.242 54.424C241.175 56.3867 240.642 58.6907 240.642 61.336C240.642 64.024 241.175 66.3707 242.242 68.376C243.308 70.3387 244.738 71.8533 246.53 72.92C248.322 73.944 250.306 74.456 252.482 74.456C254.658 74.456 256.642 73.944 258.434 72.92C260.268 71.8533 261.719 70.3387 262.786 68.376C263.852 66.3707 264.386 64.0453 264.386 61.4Z" fill="#2C3E50"/>
<rect x="166" y="9" width="11" height="86.3" fill="#2980B9"/>
<rect x="141" y="47" width="11" height="35" fill="#C0392B"/>
<rect x="177" y="9" width="7" height="86.3" fill="#24628C"/>
<path d="M177 9L183.998 1.20577V16.7942L177 9Z" fill="#24628C"/>
<rect x="152" y="47" width="7" height="35" fill="#862E29"/>
<path d="M152 47L158.998 39.2058V54.7942L152 47Z" fill="#862E29"/>
</svg>
